<svg xmlns="http://www.w3.org/2000/svg" width="88" height="26" fill="none"><g opacity=".3"><path fill="#fff" d="M0 0h38.792L49 13 38.792 26H0V0Z"/><path fill="#010101" fill-rule="evenodd" d="m17.315 11.527.18.147a.317.317 0 0 0 .088-.09l.016-.022a690.519 690.519 0 0 0 1.9-2.304c.085-.102.082-.15-.015-.233a10.961 10.961 0 0 0-.231-.196c-.67-.555-1.406-.987-2.24-1.238a7.82 7.82 0 0 0-1.704-.298c-.756-.051-1.504-.027-2.245.147-2.597.604-4.534 2.777-4.762 5.563a6.656 6.656 0 0 0 .188 2.226c.432 1.654 1.372 2.92 2.865 3.755.813.455 1.694.694 2.62.77.784.063 1.56.014 2.326-.16 1.295-.295 2.44-.891 3.459-1.744a.284.284 0 0 0 .114-.244c-.003-1.326-.003-2.653-.002-3.98v-.994l-.003-.052a.323.323 0 0 1 .005-.113c.013-.041-.01-.065-.03-.088-.018-.018-.036-.037-.033-.065.006-.045-.025-.052-.06-.052H14.248a.556.556 0 0 1-.065 0c-.055-.006-.073.022-.069.073a.585.585 0 0 1 0 .065v2.652c0 .096-.007.139.011.157.018.018.06.013.156.013h2.164c.095 0 .136-.005.153.013.018.019.011.062.012.16V15.966c0 .26 0 .262-.233.375-.682.33-1.403.424-2.147.33a2.749 2.749 0 0 1-1.973-1.182 3.176 3.176 0 0 1-.553-1.487c-.082-.69.001-1.355.311-1.981.374-.753.939-1.293 1.75-1.541.57-.175 1.146-.13 1.716-.003.517.114.968.369 1.383.689.152.116.3.237.45.36Zm15.307-2.514c-1.275-1.173-2.794-1.731-4.363-1.744-.725.002-1.267.061-1.841.212-1.668.44-2.973 1.382-3.84 2.887-.89 1.544-1.07 3.2-.573 4.904.556 1.905 1.743 3.29 3.579 4.063 1.41.591 2.87.67 4.344.28 1.711-.454 3.023-1.456 3.883-3.02.725-1.317.92-2.731.65-4.207-.243-1.327-.85-2.463-1.84-3.375Zm-7.04 2.977c.556-1.035 1.443-1.531 2.305-1.55 1.747-.005 2.89.989 3.201 2.366.189.83.105 1.637-.299 2.391-.476.886-1.217 1.402-2.215 1.517-.964.112-1.806-.164-2.494-.865a3.032 3.032 0 0 1-.82-1.615c-.143-.783-.055-1.541.322-2.244Z" clip-rule="evenodd"/><path fill="#fff" d="M49 0h39v26H49z"/><path fill="#010101" d="M73.538 7.27h4.892c.19 0 .168-.021.168.171v2.8c0 .135 0 .135-.136.135h-3.128c-.186 0-.164-.016-.164.16v8.676c0 .18 0 .18-.184.18h-2.949c-.167 0-.147.01-.147-.149v-8.675c0-.194 0-.194-.199-.194h-3.073c-.161 0-.15.015-.15-.147V7.344c-.004-.051.015-.077.07-.075.037.002.073 0 .11 0 1.63.002 3.26.002 4.89.002ZM62.094 13.323v-5.89c0-.185-.022-.163.158-.163h2.962c.024 0 .047.003.07 0 .073-.008.097.028.09.097-.003.028 0 .056 0 .084v11.764c0 .2.029.178-.174.178h-2.934c-.027 0-.055-.003-.082 0-.078.01-.095-.03-.09-.097.003-.036 0-.074 0-.111v-5.862Z"/></g></svg>